HIERARCHY
ROOT Hips
{
	OFFSET -3.958830 18.904000 13.208200
	CHANNELS 6 Xposition Yposition Zposition Zrotation Yrotation Xrotation 
	JOINT LHipJoint
	{
		OFFSET 0.000000 0.000000 0.000000
		CHANNELS 3 Zrotation Yrotation Xrotation
		JOINT LeftUpLeg
		{
			OFFSET 1.800000 -1.400000 0.085000
			CHANNELS 3 Zrotation Yrotation Xrotation
			JOINT LeftLeg
			{
				OFFSET 2.215000 -6.000000 0.000000
				CHANNELS 3 Zrotation Yrotation Xrotation
				JOINT LeftFoot
				{
					OFFSET 2.500000 -6.900000 0.000000
					CHANNELS 3 Zrotation Yrotation Xrotation
					JOINT LeftToeBase
					{
						OFFSET 0.200000 -0.500000 1.950000
						CHANNELS 3 Zrotation Yrotation Xrotation
						End Site
						{
							OFFSET 0.000000 0.000000 0.000000
						}
					}
				}
			}
		}
	}
	JOINT RHipJoint
	{
		OFFSET 0.000000 0.000000 0.000000
		CHANNELS 3 Zrotation Yrotation Xrotation
		JOINT RightUpLeg
		{
			OFFSET -1.800000 -1.400000 0.085000
			CHANNELS 3 Zrotation Yrotation Xrotation
			JOINT RightLeg
			{
				OFFSET -2.215000 -6.000000 0.000000
				CHANNELS 3 Zrotation Yrotation Xrotation
				JOINT RightFoot
				{
					OFFSET -2.500000 -6.900000 0.000000
					CHANNELS 3 Zrotation Yrotation Xrotation
					JOINT RightToeBase
					{
						OFFSET -0.200000 -0.500000 1.950000
						CHANNELS 3 Zrotation Yrotation Xrotation
						End Site
						{
							OFFSET 0.000000 0.000000 0.000000
						}
					}
				}
			}
		}
	}
	JOINT LowerBack
	{
		OFFSET 0.000000 0.000000 0.000000
		CHANNELS 3 Zrotation Yrotation Xrotation
		JOINT Spine
		{
			OFFSET -0.087000 1.940000 -0.288900
			CHANNELS 3 Zrotation Yrotation Xrotation
			JOINT Spine1
			{
				OFFSET 0.000000 1.950000 0.060000
				CHANNELS 3 Zrotation Yrotation Xrotation
				JOINT Neck
				{
					OFFSET 0.000000 0.000000 0.000000
					CHANNELS 3 Zrotation Yrotation Xrotation
					JOINT Neck1
					{
						OFFSET 0.000000 1.600000 0.340000
						CHANNELS 3 Zrotation Yrotation Xrotation
						JOINT Head
						{
							OFFSET 0.000000 1.667000 -0.240000
							CHANNELS 3 Zrotation Yrotation Xrotation
							End Site
							{
								OFFSET 0.000000 0.000000 0.000000
							}
						}
					}
				}
				JOINT LeftShoulder
				{
					OFFSET 0.000000 0.000000 0.000000
					CHANNELS 3 Zrotation Yrotation Xrotation
					JOINT LeftArm
					{
						OFFSET 2.700000 1.550000 -0.730000
						CHANNELS 3 Zrotation Yrotation Xrotation
						JOINT LeftForeArm
						{
							OFFSET 5.450000 0.000000 0.000000
							CHANNELS 3 Zrotation Yrotation Xrotation
							JOINT LeftHand
							{
								OFFSET 3.450000 0.000000 0.000000
								CHANNELS 3 Zrotation Yrotation Xrotation
								JOINT LeftHandIndex1
								{
									OFFSET 0.750000 0.000000 0.000000
									CHANNELS 3 Zrotation Yrotation Xrotation
									End Site
									{
										OFFSET 0.000000 0.000000 0.000000
									}
								}
							}
						}
					}
				}
				JOINT RightShoulder
				{
					OFFSET 0.000000 0.000000 0.000000
					CHANNELS 3 Zrotation Yrotation Xrotation
					JOINT RightArm
					{
						OFFSET -2.700000 1.550000 -0.730000
						CHANNELS 3 Zrotation Yrotation Xrotation
						JOINT RightForeArm
						{
							OFFSET -5.450000 0.000000 0.000000
							CHANNELS 3 Zrotation Yrotation Xrotation
							JOINT RightHand
							{
								OFFSET -3.450000 0.000000 0.000000
								CHANNELS 3 Zrotation Yrotation Xrotation
								JOINT RightHandIndex1
								{
									OFFSET -0.750000 0.000000 0.000000
									CHANNELS 3 Zrotation Yrotation Xrotation
									End Site
									{
										OFFSET 0.000000 0.000000 0.000000
									}
								}
							}
						}
					}
				}
			}
		}
	}
}
MOTION
Frames: 12
Frame Time: 0.016667
0.744620 16.350370 -1.995270 -12.704249 -3.188604 -7.945516 -15.001465 12.065478 1.642345 23.881366 -1.641560 -10.556731 -6.264696 9.310153 24.349702 -0.618376 6.534264 2.324687 0.935150 0.247850 0.689020 18.871297 -7.976451 6.252800 -24.058862 6.575199 -57.991584 14.007874 -35.829110 82.877743 -3.399333 -16.162399 -0.144546 0.226900 0.038710 0.246980 -4.618103 -2.372421 -9.032477 26.267143 -14.106595 32.520022 -10.420363 -6.670506 5.413036 3.123686 -1.878286 -10.019638 -6.343536 -0.059911 37.728094 2.441770 -1.315810 -21.084620 -22.385227 -13.411662 3.304515 -17.289614 -2.758258 -4.579957 -126.170167 -57.608814 81.294692 -3.429409 3.445506 1.050850 -0.051750 0.071040 0.433240 15.770784 10.919607 8.365357 27.788255 -8.099030 -9.666165 93.566685 59.040173 45.916349 1.860121 -1.736396 -0.293370 0.291390 -0.249510 -0.517440 
0.790490 16.245630 -2.079430 -13.356107 -6.086678 -8.511214 -15.065910 11.950607 1.608169 25.119981 -1.286318 -9.933948 -6.786689 10.224185 26.104367 -0.585617 7.006760 2.137611 0.977420 0.280640 0.702530 18.872568 -7.529151 6.624159 -24.947720 8.637232 -61.641903 15.392992 -37.968068 85.385694 -3.642123 -16.877789 -0.281486 0.262450 0.020490 0.228400 -4.568121 -2.586272 -9.160820 26.145305 -15.071958 36.855656 -10.222145 -6.930351 4.341582 2.860622 -3.989353 -9.788456 -9.967712 1.995424 36.636074 3.844580 -1.755900 -23.939690 -22.877413 -13.089686 3.244552 -15.048270 -0.843805 -5.212808 -120.664257 -58.770324 76.237156 -3.385745 3.428706 1.103870 -0.104790 0.083380 0.437500 16.885011 12.318320 7.803198 22.933319 -5.353690 -8.939222 99.111419 60.275740 52.091585 1.916765 -1.620589 -0.311680 0.326800 -0.247520 -0.523860 
0.835150 16.117420 -2.138790 -12.951666 -8.248745 -9.796688 -15.173357 11.951047 1.565435 25.486575 -0.955723 -8.768400 -7.376522 11.208474 28.049238 -0.491597 7.479693 1.978110 0.987200 0.284190 0.725110 18.818152 -7.061466 7.010047 -27.364083 9.654572 -64.831287 16.956055 -40.530826 87.816156 -3.863187 -17.586106 -0.406585 0.271160 0.002250 0.211070 -4.368969 -3.036832 -9.347073 23.895932 -14.812545 41.935569 -9.118887 -6.864695 2.657063 2.790077 -4.511659 -9.688115 -10.820318 2.805895 36.076222 3.769430 -1.786180 -24.852580 -23.961393 -13.559887 3.330119 -12.447930 0.507033 -5.383453 -113.564873 -59.493182 69.884175 -3.357205 3.432257 1.119160 -0.128740 0.089510 0.431250 18.180290 13.637517 7.417955 18.939744 -3.683682 -8.727264 102.875042 61.884294 57.456078 1.986868 -1.486146 -0.323160 0.338770 -0.256220 -0.532110 
0.891700 15.985100 -2.190610 -12.869075 -10.572964 -10.789913 -15.271579 11.844098 1.649177 26.501841 -0.660522 -8.366836 -8.766726 12.821157 30.782049 -0.369216 8.227016 1.721389 0.981570 0.275890 0.737820 18.772716 -6.670034 7.260708 -29.282353 10.822401 -67.225756 19.345581 -42.545840 88.143755 -3.995700 -17.995467 -0.469722 0.284240 0.014040 0.199320 -4.220073 -3.271908 -9.520270 22.615608 -14.547272 46.685108 -8.920499 -6.467407 0.578774 2.941858 -4.324790 -9.238625 -10.103502 2.924142 34.813556 3.117390 -1.698570 -25.268920 -26.111967 -14.130600 3.149149 -9.728271 1.213287 -5.220526 -104.264880 -59.828356 62.049133 -3.351400 3.442359 1.125180 -0.120190 0.081010 0.424660 19.976784 14.556368 6.944992 16.003405 -2.252153 -8.734389 104.031944 63.721547 60.852756 2.039262 -1.325267 -0.350610 0.367960 -0.249930 -0.543070 
0.947050 15.855800 -2.203210 -12.397495 -12.302668 -11.497116 -15.383582 11.744345 1.811227 27.295140 -0.494980 -8.515461 -10.626849 14.739300 33.604375 -0.163025 9.013439 1.459501 0.959230 0.272200 0.715760 18.712777 -6.279998 7.414400 -31.228542 11.276047 -68.915226 20.917249 -44.000184 88.383984 -4.067666 -18.263801 -0.502631 0.281980 0.034850 0.191520 -4.030002 -3.644711 -9.691126 21.099219 -13.934316 49.723782 -8.137140 -6.158837 -1.331816 3.085617 -4.551027 -9.017781 -10.378230 3.210968 34.004600 2.325730 -1.919310 -24.155400 -28.431515 -14.391672 3.173651 -10.153782 1.959469 -5.294203 -90.114269 -60.055133 51.082555 -3.316881 3.487729 1.079620 -0.098100 0.064500 0.426190 22.007100 15.542193 6.660056 13.953116 -1.179879 -8.759687 102.838897 65.636959 61.945738 2.118624 -1.182603 -0.343880 0.375480 -0.247000 -0.522120 
0.992850 15.763260 -2.200120 -12.233386 -14.318832 -12.075918 -15.442284 11.761971 1.987136 28.050680 -0.248741 -8.835195 -11.455176 16.272417 36.336113 0.050537 9.642357 1.249005 0.907750 0.216670 0.684070 18.655829 -6.173204 7.341842 -30.988024 12.654570 -68.204529 21.481595 -43.253385 87.454735 -4.019189 -18.124182 -0.476073 0.224660 0.035970 0.212790 -3.913768 -3.841050 -9.767458 20.500396 -13.468054 51.561751 -8.120269 -5.590826 -2.828150 3.459074 -4.694039 -9.353279 -10.932131 3.858693 35.064571 1.086660 -1.628720 -22.380530 -30.874533 -15.232738 3.519722 -12.533129 3.130328 -6.262472 -72.767998 -59.756988 38.783911 -3.206656 3.572593 1.043920 -0.083700 0.058800 0.410840 23.668733 17.003039 7.095863 15.464595 -0.964258 -9.743793 101.754158 68.799740 63.422332 2.283039 -0.861280 -0.312990 0.332420 -0.227620 -0.507150 
1.005150 15.665230 -2.154670 -11.122154 -15.046432 -11.655901 -15.488556 11.763022 2.097110 27.432675 -0.253679 -10.121475 -11.866857 17.337035 38.696408 0.186905 10.054064 1.108094 0.852660 0.157940 0.665470 18.616700 -6.084742 7.348571 -32.109732 12.479623 -67.722148 22.373871 -43.005134 86.190955 -3.936776 -17.931634 -0.451803 0.178280 0.044260 0.237330 -3.801039 -4.006353 -9.862406 19.150107 -12.004787 50.017994 -7.770894 -4.916994 -3.604528 3.791420 -3.696456 -9.433777 -9.345802 3.900347 36.724530 -0.685290 -0.761350 -19.701710 -33.370916 -15.615605 3.603381 -15.693256 3.979528 -7.125908 -55.374709 -54.942659 25.190807 -3.148522 3.582393 1.001160 -0.045150 0.044420 0.384090 25.471540 17.056728 7.376667 19.182446 -0.897399 -10.143887 98.595532 71.307639 61.883492 2.437483 -0.624486 -0.294410 0.288630 -0.203030 -0.506060 
1.006480 15.598590 -2.102170 -10.559082 -15.055604 -10.666044 -15.464562 11.744228 2.189132 26.795527 -0.338631 -11.987019 -11.329343 17.852970 40.959619 0.223701 10.341143 1.001108 0.794630 0.086180 0.637070 18.628547 -6.192307 7.254597 -32.247476 12.259910 -66.285750 22.919619 -42.028012 84.096722 -3.784099 -17.542367 -0.390031 0.147770 0.075380 0.243220 -3.847328 -3.878940 -9.874828 19.484704 -11.458620 46.315184 -8.359033 -4.493237 -3.600290 4.056453 -3.005267 -9.289646 -8.283414 4.098411 38.797122 -1.855600 -0.194560 -17.037780 -35.959825 -15.553892 3.400751 -19.154886 4.114248 -7.584991 -38.167968 -46.731451 13.032540 -3.158825 3.490361 0.977960 -0.001020 0.008010 0.356700 27.376491 16.493734 7.557917 24.025806 -0.094740 -9.862347 91.786860 73.530978 56.759035 2.489999 -0.622408 -0.311480 0.281200 -0.158010 -0.517100 
0.989820 15.565400 -2.042560 -10.027770 -13.905969 -10.006571 -15.386475 11.833699 2.200713 25.708770 -0.538725 -13.345203 -10.002752 17.390964 42.171896 0.163497 10.310223 1.001940 0.756990 0.044860 0.616730 18.659319 -6.489433 7.037438 -31.766779 11.674140 -63.058384 23.833699 -40.618439 80.718228 -3.573428 -16.884904 -0.287023 0.145410 0.104420 0.227560 -3.963492 -3.687820 -9.759978 20.307864 -11.483156 41.994282 -8.920596 -4.704194 -3.145408 4.082830 -3.322699 -8.703585 -9.076639 4.727258 40.685986 -2.086830 -0.403480 -15.955550 -38.047717 -14.532383 2.880285 -22.326281 3.295590 -7.019241 -24.606036 -36.038216 5.243122 -3.212683 3.302153 0.974670 0.014520 -0.016110 0.334790 29.254503 15.375014 7.127100 28.681118 0.900154 -9.925597 90.078364 73.764898 55.099658 2.496384 -0.632951 -0.342000 0.315470 -0.118360 -0.520460 
0.962620 15.543240 -1.964370 -8.609543 -11.998674 -9.369497 -15.300591 12.007976 2.112145 23.364463 -0.698985 -14.368493 -8.226193 16.368531 42.757933 0.067868 10.083399 1.097405 0.686720 -0.048540 0.583220 18.686390 -6.838051 6.858263 -32.849452 10.243320 -59.250191 26.004685 -39.454567 75.837114 -3.288767 -16.074260 -0.136116 0.119780 0.168650 0.216610 -4.059931 -3.527111 -9.629743 20.022053 -10.639239 36.896465 -9.098456 -4.893335 -2.777331 4.077996 -2.984848 -8.100621 -8.549317 4.795780 42.614645 -3.100150 -0.395880 -12.744270 -39.924165 -13.189207 2.538661 -25.447138 2.709098 -5.267268 -14.785186 -23.075642 0.910331 -3.368076 3.041522 0.946580 0.073750 -0.079610 0.311210 31.044672 13.587496 6.309050 33.216758 1.316896 -10.041825 92.465245 72.990408 56.359670 2.522617 -0.558018 -0.388230 0.338390 -0.067350 -0.530410 
0.929180 15.548770 -1.867840 -7.013180 -10.232358 -8.904590 -15.188127 12.289153 2.003138 20.785247 -0.605844 -14.200465 -6.689137 14.994125 41.794169 -0.055147 9.596591 1.287069 0.627750 -0.123600 0.538480 18.699357 -7.397762 6.518590 -32.960728 9.314665 -53.864147 27.326970 -36.822886 70.178645 -2.931935 -15.004836 0.075026 0.099900 0.225010 0.203970 -4.174374 -3.241852 -9.412166 19.331782 -9.303192 31.776872 -9.317065 -4.773836 -2.378045 4.098038 -2.621560 -7.432970 -7.690967 4.822870 44.352892 -3.126590 -0.411570 -9.935660 -41.011210 -11.063643 1.991256 -28.384995 2.902037 -3.619906 -8.546205 -13.319884 -0.834426 -3.538062 2.807376 0.926030 0.117050 -0.132380 0.303530 32.022532 11.174753 5.430318 37.575669 1.448451 -9.663518 93.042744 70.881062 55.290404 2.429885 -0.753227 -0.428670 0.353960 -0.028910 -0.532020 
0.879030 15.554920 -1.757700 -5.332589 -7.893413 -8.163451 -15.116051 12.567155 1.986128 18.555470 -0.499485 -14.211755 -5.825084 13.840359 40.185866 -0.109070 9.069440 1.499252 0.571860 -0.179080 0.460210 18.668918 -7.985471 6.044567 -32.608389 8.186111 -47.950011 27.321863 -33.586116 64.697340 -2.543954 -13.917655 0.308845 0.068020 0.291430 0.215960 -4.185880 -3.038963 -9.190917 17.633017 -7.586001 26.390601 -8.302330 -4.490553 -2.244576 3.938513 -2.358510 -6.545920 -6.776195 4.637854 44.540626 -3.141370 -0.479480 -5.914590 -40.781025 -7.779236 1.043787 -31.967178 3.797458 -2.661785 -4.896552 -6.997068 -1.353312 -3.710813 2.721010 0.843570 0.180830 -0.197610 0.321170 32.233422 7.936743 4.360116 41.330854 0.688689 -9.806300 102.650754 68.712064 62.896120 2.389902 -0.714282 -0.419590 0.318120 -0.010130 -0.497530 
